<?xml version="1.0" encoding="utf-8"?>
<!-- Generator: Adobe Illustrator 16.0.0, SVG Export Plug-In . SVG Version: 6.00 Build 0)  -->
<!DOCTYPE svg PUBLIC "-//W3C//DTD SVG 1.1//EN" "http://www.w3.org/Graphics/SVG/1.1/DTD/svg11.dtd">
<svg version="1.1" id="Layer_1" xmlns="http://www.w3.org/2000/svg" xmlns:xlink="http://www.w3.org/1999/xlink" x="0px" y="0px"
	 width="410.333px" height="530.17px" viewBox="0 0 410.333 530.17" enable-background="new 0 0 410.333 530.17"
	 xml:space="preserve">
<g id="F">
	<g>
		<line fill="none" stroke="#FFE600" stroke-width="3" stroke-miterlimit="10" x1="25.5" y1="26" x2="25.5" y2="256"/>
		<line fill="none" stroke="#FFE600" stroke-width="3" stroke-miterlimit="10" x1="25" y1="26.5" x2="122" y2="26.5"/>
		<line fill="none" stroke="#FFE600" stroke-width="3" stroke-miterlimit="10" x1="25" y1="85.5" x2="73" y2="85.5"/>
		<line fill="none" stroke="#FFE600" stroke-width="3" stroke-miterlimit="10" x1="19.5" y1="21" x2="19.5" y2="256"/>
		<line fill="none" stroke="#FFE600" stroke-width="3" stroke-miterlimit="10" x1="31.5" y1="26" x2="31.5" y2="256"/>
		<line fill="none" stroke="#FFE600" stroke-width="3" stroke-miterlimit="10" x1="19" y1="20.5" x2="122" y2="20.5"/>
		<line fill="none" stroke="#FFE600" stroke-width="3" stroke-miterlimit="10" x1="25" y1="32.5" x2="122" y2="32.5"/>
		<line fill="none" stroke="#FFE600" stroke-width="3" stroke-miterlimit="10" x1="25" y1="90.5" x2="73" y2="90.5"/>
		<line fill="none" stroke="#FFE600" stroke-width="3" stroke-miterlimit="10" x1="25" y1="79.5" x2="73" y2="79.5"/>
	</g>
</g>
<g id="T">
	<line fill="none" stroke="#FFE600" stroke-width="3" stroke-miterlimit="10" x1="61" y1="283.25" x2="61" y2="514.25"/>
	<line fill="none" stroke="#FFE600" stroke-width="3" stroke-miterlimit="10" x1="15.5" y1="283.75" x2="112.5" y2="283.75"/>
	<line fill="none" stroke="#FFE600" stroke-width="3" stroke-miterlimit="10" x1="67" y1="290.25" x2="67" y2="514.25"/>
	<line fill="none" stroke="#FFE600" stroke-width="3" stroke-miterlimit="10" x1="66.5" y1="289.75" x2="112.5" y2="289.75"/>
	<line fill="none" stroke="#FFE600" stroke-width="3" stroke-miterlimit="10" x1="15.5" y1="278.75" x2="112.5" y2="278.75"/>
	<line fill="none" stroke="#FFE600" stroke-width="3" stroke-miterlimit="10" x1="55" y1="284.25" x2="55" y2="514.25"/>
	<line fill="none" stroke="#FFE600" stroke-width="3" stroke-miterlimit="10" x1="15.5" y1="289.75" x2="61.5" y2="289.75"/>
</g>
<g id="I">
	<g>
		<line fill="none" stroke="#FFE600" stroke-width="3" stroke-miterlimit="10" x1="189.5" y1="26" x2="189.5" y2="250"/>
		<line fill="none" stroke="#FFE600" stroke-width="3" stroke-miterlimit="10" x1="141" y1="25.5" x2="238" y2="25.5"/>
		<line fill="none" stroke="#FFE600" stroke-width="3" stroke-miterlimit="10" x1="183.5" y1="32" x2="183.5" y2="244"/>
		<line fill="none" stroke="#FFE600" stroke-width="3" stroke-miterlimit="10" x1="195.5" y1="32" x2="195.5" y2="243"/>
		<line fill="none" stroke="#FFE600" stroke-width="3" stroke-miterlimit="10" x1="141" y1="20.5" x2="238" y2="20.5"/>
		<line fill="none" stroke="#FFE600" stroke-width="3" stroke-miterlimit="10" x1="141" y1="31.5" x2="238" y2="31.5"/>
		<line fill="none" stroke="#FFE600" stroke-width="3" stroke-miterlimit="10" x1="141" y1="249.5" x2="238" y2="249.5"/>
		<line fill="none" stroke="#FFE600" stroke-width="3" stroke-miterlimit="10" x1="141" y1="243.5" x2="238" y2="243.5"/>
		<line fill="none" stroke="#FFE600" stroke-width="3" stroke-miterlimit="10" x1="141" y1="255.5" x2="238" y2="255.5"/>
	</g>
</g>
<g id="N">
	<g>
		<line fill="none" stroke="#FFE600" stroke-width="3" stroke-miterlimit="10" x1="285.512" y1="23" x2="285.512" y2="259"/>
		<line fill="none" stroke="#FFE600" stroke-width="3" stroke-miterlimit="10" x1="279.512" y1="23" x2="279.512" y2="259"/>
		<line fill="none" stroke="#FFE600" stroke-width="3" stroke-miterlimit="10" x1="285.61" y1="23.446" x2="369.407" y2="258.875"/>
		<line fill="none" stroke="#FFE600" stroke-width="3" stroke-miterlimit="10" x1="369.512" y1="259" x2="369.512" y2="23"/>
		<line fill="none" stroke="#FFE600" stroke-width="3" stroke-miterlimit="10" x1="375.512" y1="259" x2="375.512" y2="23"/>
		<polyline fill="none" stroke="#FFE600" stroke-width="3" stroke-miterlimit="10" points="291.512,23.083 363.512,226.023 
			363.512,23 		"/>
		<polyline fill="none" stroke="#FFE600" stroke-width="3" stroke-miterlimit="10" points="363.012,259 291.512,56.144 291.512,259 
					"/>
	</g>
</g>
<g id="N_2_1_">
	<g>
		<line fill="none" stroke="#FFE600" stroke-width="3" stroke-miterlimit="10" x1="285.511" y1="282.5" x2="285.511" y2="518.5"/>
		<line fill="none" stroke="#FFE600" stroke-width="3" stroke-miterlimit="10" x1="279.511" y1="282.5" x2="279.511" y2="518.5"/>
		
			<line fill="none" stroke="#FFE600" stroke-width="3" stroke-miterlimit="10" x1="285.61" y1="282.946" x2="369.407" y2="518.375"/>
		<line fill="none" stroke="#FFE600" stroke-width="3" stroke-miterlimit="10" x1="369.511" y1="518.5" x2="369.511" y2="282.5"/>
		<line fill="none" stroke="#FFE600" stroke-width="3" stroke-miterlimit="10" x1="375.511" y1="518.5" x2="375.511" y2="282.5"/>
		<polyline fill="none" stroke="#FFE600" stroke-width="3" stroke-miterlimit="10" points="291.511,282.584 363.511,485.523 
			363.511,282.5 		"/>
		<polyline fill="none" stroke="#FFE600" stroke-width="3" stroke-miterlimit="10" points="363.011,518.5 291.511,315.644 
			291.511,518.5 		"/>
	</g>
</g>
<g id="GUIDES" display="none">
</g>
<g id="A">
	<polyline fill="none" stroke="#FFE600" stroke-width="3" stroke-miterlimit="10" points="237.738,518.5 189.696,282.5 
		140.653,518.5 	"/>
	<polyline fill="none" stroke="#FFE600" stroke-width="3" stroke-miterlimit="10" points="198.071,354.5 189.428,309.773 
		180.604,354.5 	"/>
	<line fill="none" stroke="#FFE600" stroke-width="3" stroke-miterlimit="10" x1="180.989" y1="354" x2="197.989" y2="354"/>
	<line fill="none" stroke="#FFE600" stroke-width="3" stroke-miterlimit="10" x1="180.406" y1="359.791" x2="147.156" y2="518.5"/>
	<polyline fill="none" stroke="#FFE600" stroke-width="3" stroke-miterlimit="10" points="231.239,518.5 198.698,360 198.989,360 
		179.989,360 	"/>
	<line fill="none" stroke="#FFE600" stroke-width="3" stroke-miterlimit="10" x1="184.826" y1="280" x2="134.848" y2="518.5"/>
	<line fill="none" stroke="#FFE600" stroke-width="3" stroke-miterlimit="10" x1="194.739" y1="280" x2="244.123" y2="518.375"/>
</g>
</svg>
