<?xml version="1.0" encoding="utf-8"?>
<!-- Generator: Adobe Illustrator 16.0.0, SVG Export Plug-In . SVG Version: 6.00 Build 0)  -->
<!DOCTYPE svg PUBLIC "-//W3C//DTD SVG 1.1//EN" "http://www.w3.org/Graphics/SVG/1.1/DTD/svg11.dtd">
<svg version="1.1" xmlns="http://www.w3.org/2000/svg" xmlns:xlink="http://www.w3.org/1999/xlink" x="0px" y="0px" width="276px"
	 height="1528.423px" viewBox="0 0 276 1528.423" enable-background="new 0 0 276 1528.423" xml:space="preserve">
<g id="F">
	<line fill="none" stroke="#000000" stroke-width="3" stroke-miterlimit="10" x1="14.5" y1="15.386" x2="14.5" y2="245.386"/>
	<line fill="none" stroke="#000000" stroke-width="3" stroke-miterlimit="10" x1="14" y1="15.886" x2="117" y2="15.886"/>
	<line fill="none" stroke="#000000" stroke-width="3" stroke-miterlimit="10" x1="14" y1="74.886" x2="65" y2="74.886"/>
	<line fill="none" stroke="#000000" stroke-width="3" stroke-miterlimit="10" x1="8.5" y1="10.386" x2="8.5" y2="245.386"/>
	<line fill="none" stroke="#000000" stroke-width="3" stroke-miterlimit="10" x1="21.5" y1="15.386" x2="21.5" y2="245.386"/>
	<line fill="none" stroke="#000000" stroke-width="3" stroke-miterlimit="10" x1="8" y1="9.886" x2="117" y2="9.886"/>
	<line fill="none" stroke="#000000" stroke-width="3" stroke-miterlimit="10" x1="14" y1="21.886" x2="117" y2="21.886"/>
	<line fill="none" stroke="#000000" stroke-width="3" stroke-miterlimit="10" x1="14" y1="79.886" x2="65" y2="79.886"/>
	<line fill="none" stroke="#000000" stroke-width="3" stroke-miterlimit="10" x1="14" y1="68.886" x2="65" y2="68.886"/>
</g>
<g id="T">
	<g>
		<line fill="none" stroke="#000000" stroke-width="3" stroke-miterlimit="10" x1="58.5" y1="779.386" x2="58.5" y2="1010.386"/>
		<line fill="none" stroke="#000000" stroke-width="3" stroke-miterlimit="10" x1="7" y1="779.886" x2="116" y2="779.886"/>
		<line fill="none" stroke="#000000" stroke-width="3" stroke-miterlimit="10" x1="65.5" y1="786.386" x2="65.5" y2="1010.386"/>
		<line fill="none" stroke="#000000" stroke-width="3" stroke-miterlimit="10" x1="65" y1="785.886" x2="116" y2="785.886"/>
		<line fill="none" stroke="#000000" stroke-width="3" stroke-miterlimit="10" x1="7" y1="774.886" x2="116" y2="774.886"/>
		<line fill="none" stroke="#000000" stroke-width="3" stroke-miterlimit="10" x1="52.5" y1="780.386" x2="52.5" y2="1010.386"/>
		<line fill="none" stroke="#000000" stroke-width="3" stroke-miterlimit="10" x1="7" y1="785.886" x2="59" y2="785.886"/>
	</g>
</g>
<g id="I">
	<g>
		<line fill="none" stroke="#000000" stroke-width="3" stroke-miterlimit="10" x1="63.5" y1="270.386" x2="63.5" y2="494.386"/>
		<line fill="none" stroke="#000000" stroke-width="3" stroke-miterlimit="10" x1="9" y1="269.886" x2="117" y2="269.886"/>
		<line fill="none" stroke="#000000" stroke-width="3" stroke-miterlimit="10" x1="56.5" y1="276.386" x2="56.5" y2="488.386"/>
		<line fill="none" stroke="#000000" stroke-width="3" stroke-miterlimit="10" x1="69.5" y1="276.386" x2="69.5" y2="487.386"/>
		<line fill="none" stroke="#000000" stroke-width="3" stroke-miterlimit="10" x1="9" y1="264.886" x2="117" y2="264.886"/>
		<line fill="none" stroke="#000000" stroke-width="3" stroke-miterlimit="10" x1="9" y1="275.886" x2="117" y2="275.886"/>
		<line fill="none" stroke="#000000" stroke-width="3" stroke-miterlimit="10" x1="9" y1="493.886" x2="117" y2="493.886"/>
		<line fill="none" stroke="#000000" stroke-width="3" stroke-miterlimit="10" x1="9" y1="487.886" x2="117" y2="487.886"/>
		<line fill="none" stroke="#000000" stroke-width="3" stroke-miterlimit="10" x1="9" y1="499.886" x2="117" y2="499.886"/>
	</g>
</g>
<g id="N">
	<g>
		<line fill="none" stroke="#000000" stroke-width="3" stroke-miterlimit="10" x1="13.5" y1="520.386" x2="13.5" y2="756.386"/>
		<line fill="none" stroke="#000000" stroke-width="3" stroke-miterlimit="10" x1="7.5" y1="520.386" x2="7.5" y2="756.386"/>
		
			<line fill="none" stroke="#000000" stroke-width="3" stroke-miterlimit="10" x1="14.459" y1="520.832" x2="110.069" y2="756.261"/>
		<line fill="none" stroke="#000000" stroke-width="3" stroke-miterlimit="10" x1="110.5" y1="756.386" x2="110.5" y2="520.386"/>
		<line fill="none" stroke="#000000" stroke-width="3" stroke-miterlimit="10" x1="116.5" y1="756.386" x2="116.5" y2="520.386"/>
		<polyline fill="none" stroke="#000000" stroke-width="3" stroke-miterlimit="10" points="21.35,520.47 103.5,723.409 
			103.5,520.386 		"/>
		<polyline fill="none" stroke="#000000" stroke-width="3" stroke-miterlimit="10" points="102.981,756.019 20.5,554.259 
			20.5,756.386 		"/>
	</g>
</g>
<g id="A">
	<line fill="none" stroke="#FFFFFF" stroke-width="3" stroke-miterlimit="10" x1="2" y1="1269.886" x2="129" y2="1269.886"/>
	<g>
		<polyline fill="none" stroke="#000000" stroke-width="3" stroke-miterlimit="10" points="71.082,1103.386 62.438,1058.659 
			53.614,1103.386 		"/>
		<line fill="none" stroke="#000000" stroke-width="3" stroke-miterlimit="10" x1="54" y1="1102.886" x2="71" y2="1102.886"/>
		
			<line fill="none" stroke="#000000" stroke-width="3" stroke-miterlimit="10" x1="53.417" y1="1108.677" x2="20.167" y2="1267.386"/>
		<polyline fill="none" stroke="#000000" stroke-width="3" stroke-miterlimit="10" points="104.25,1267.386 71.709,1108.886 
			72,1108.886 53,1108.886 		"/>
		<polyline fill="none" stroke="#000000" stroke-width="3" stroke-miterlimit="10" points="117.5,1269.028 67.75,1028.886 
			57.837,1028.886 7.5,1269.099 		"/>
		<line fill="none" stroke="#FFFFFF" stroke-width="3" stroke-miterlimit="10" x1="56" y1="1028.886" x2="71" y2="1028.886"/>
		<polyline fill="none" stroke="#000000" stroke-width="3" stroke-miterlimit="10" points="111.25,1269.099 63.032,1031.386 
			13.81,1269.099 		"/>
	</g>
</g>
<g id="A2">
	<line fill="none" stroke="#FFFFFF" stroke-width="3" stroke-miterlimit="10" x1="151" y1="1269.886" x2="278" y2="1269.886"/>
	<g>
		<polyline fill="none" stroke="#000000" stroke-width="3" stroke-miterlimit="10" points="220.082,1103.386 211.438,1058.659 
			202.614,1103.386 		"/>
		<line fill="none" stroke="#000000" stroke-width="3" stroke-miterlimit="10" x1="203" y1="1102.886" x2="220" y2="1102.886"/>
		
			<line fill="none" stroke="#000000" stroke-width="3" stroke-miterlimit="10" x1="202.417" y1="1108.677" x2="169.167" y2="1267.386"/>
		<polyline fill="none" stroke="#000000" stroke-width="3" stroke-miterlimit="10" points="253.25,1267.386 220.709,1108.886 
			221,1108.886 202,1108.886 		"/>
		<polyline fill="none" stroke="#000000" stroke-width="3" stroke-miterlimit="10" points="266.5,1269.028 216.75,1028.886 
			206.837,1028.886 156.5,1269.099 		"/>
		<line fill="none" stroke="#FFFFFF" stroke-width="3" stroke-miterlimit="10" x1="205" y1="1028.886" x2="220" y2="1028.886"/>
		<polyline fill="none" stroke="#000000" stroke-width="3" stroke-miterlimit="10" points="260.25,1269.099 212.032,1031.386 
			162.81,1269.099 		"/>
	</g>
</g>
<g id="N_2">
	<g>
		<line fill="none" stroke="#000000" stroke-width="3" stroke-miterlimit="10" x1="13.5" y1="1286.386" x2="13.5" y2="1522.386"/>
		<line fill="none" stroke="#000000" stroke-width="3" stroke-miterlimit="10" x1="7.5" y1="1286.386" x2="7.5" y2="1522.386"/>
		
			<line fill="none" stroke="#000000" stroke-width="3" stroke-miterlimit="10" x1="14.459" y1="1286.832" x2="110.069" y2="1522.261"/>
		<line fill="none" stroke="#000000" stroke-width="3" stroke-miterlimit="10" x1="110.5" y1="1522.386" x2="110.5" y2="1286.386"/>
		<line fill="none" stroke="#000000" stroke-width="3" stroke-miterlimit="10" x1="116.5" y1="1522.386" x2="116.5" y2="1286.386"/>
		<polyline fill="none" stroke="#000000" stroke-width="3" stroke-miterlimit="10" points="21.35,1286.47 103.5,1489.409 
			103.5,1286.386 		"/>
		<polyline fill="none" stroke="#000000" stroke-width="3" stroke-miterlimit="10" points="102.981,1522.019 20.5,1320.259 
			20.5,1522.386 		"/>
	</g>
</g>
<g id="N_3">
	<line fill="none" stroke="#000000" stroke-width="3" stroke-miterlimit="10" x1="162.5" y1="1286.386" x2="162.5" y2="1522.386"/>
	<line fill="none" stroke="#000000" stroke-width="3" stroke-miterlimit="10" x1="156.5" y1="1286.386" x2="156.5" y2="1522.386"/>
	
		<line fill="none" stroke="#000000" stroke-width="3" stroke-miterlimit="10" x1="163.459" y1="1286.832" x2="259.069" y2="1522.261"/>
	<line fill="none" stroke="#000000" stroke-width="3" stroke-miterlimit="10" x1="259.5" y1="1522.386" x2="259.5" y2="1286.386"/>
	<line fill="none" stroke="#000000" stroke-width="3" stroke-miterlimit="10" x1="265.5" y1="1522.386" x2="265.5" y2="1286.386"/>
	<polyline fill="none" stroke="#000000" stroke-width="3" stroke-miterlimit="10" points="170.35,1286.47 252.5,1489.409 
		252.5,1286.386 	"/>
	<polyline fill="none" stroke="#000000" stroke-width="3" stroke-miterlimit="10" points="252.164,1522.386 169.5,1319.529 
		169.5,1522.386 	"/>
</g>
<g id="R">
	<g>
		<circle fill="none" stroke="#000000" stroke-width="3" stroke-miterlimit="10" cx="205.742" cy="569.947" r="49.747"/>
		<circle fill="none" stroke="#000000" stroke-width="3" stroke-miterlimit="10" cx="206.046" cy="570.251" r="42.748"/>
		<circle fill="none" stroke="#000000" stroke-width="3" stroke-miterlimit="10" cx="206.458" cy="569.774" r="35.799"/>
		<line fill="none" stroke="#000000" stroke-width="3" stroke-miterlimit="10" x1="162.5" y1="594.386" x2="162.5" y2="756.386"/>
		<path fill="none" stroke="#000000" stroke-width="3" stroke-miterlimit="10" d="M156.5,577.546v178.84V577.546z"/>
		<line fill="none" stroke="#000000" stroke-width="3" stroke-miterlimit="10" x1="169.5" y1="603.386" x2="169.5" y2="756.386"/>
		
			<line fill="none" stroke="#000000" stroke-width="3" stroke-miterlimit="10" x1="169.482" y1="604.006" x2="258.283" y2="756.386"/>
		
			<line fill="none" stroke="#000000" stroke-width="3" stroke-miterlimit="10" x1="169.222" y1="591.976" x2="264.792" y2="756.386"/>
		
			<line fill="none" stroke="#000000" stroke-width="3" stroke-miterlimit="10" x1="176.186" y1="588.895" x2="272.23" y2="756.386"/>
	</g>
</g>
<g id="Y">
	<line fill="none" stroke="#000000" stroke-width="3" stroke-miterlimit="10" x1="259.768" y1="775.386" x2="156" y2="998.557"/>
	<line fill="none" stroke="#000000" stroke-width="3" stroke-miterlimit="10" x1="266" y1="775.386" x2="156" y2="1010.386"/>
	<line fill="none" stroke="#000000" stroke-width="3" stroke-miterlimit="10" x1="254.313" y1="775.386" x2="156" y2="986.653"/>
	
		<line fill="none" stroke="#000000" stroke-width="3" stroke-miterlimit="10" x1="162.338" y1="775.386" x2="211.086" y2="880.085"/>
	<line fill="none" stroke="#000000" stroke-width="3" stroke-miterlimit="10" x1="167.583" y1="775.386" x2="211.263" y2="867.8"/>
	<line fill="none" stroke="#000000" stroke-width="3" stroke-miterlimit="10" x1="156.5" y1="775.386" x2="211.086" y2="891.518"/>
</g>
<g id="GUIDES" display="none">
</g>
</svg>
